<?xml version="1.0" encoding="UTF-8" standalone="no"?>
<!DOCTYPE svg PUBLIC "-//W3C//DTD SVG 1.1//EN" "http://www.w3.org/Graphics/SVG/1.1/DTD/svg11.dtd">
<svg version="1.1" xmlns="http://www.w3.org/2000/svg" xmlns:xlink="http://www.w3.org/1999/xlink" preserveAspectRatio="xMidYMid meet" viewBox="456.0909988905287 132.06114912280754 52.84975438596513 88.78579575847192" width="40.85" height="76.79"><defs><path d="M485.34 204.12L490.61 212.35L468.09 212.35L473.13 204.12L485.34 204.12Z" id="dwKb2OQSf"></path><path d="M496.25 136.88L490.94 146.07L490.94 167L497.13 171.82L499.69 169.76L499.94 143.07L498.76 139.38L496.25 136.88Z" id="c6y0tt14a"></path><path d="M462.78 211.35L468.09 202.16L468.09 181.22L461.9 176.41L459.34 178.47L459.09 205.16L460.28 208.85L462.78 211.35Z" id="c2aBl8vA2o"></path><path d="M496.17 211.35L490.86 202.16L490.86 181.22L497.04 176.41L499.61 178.47L499.86 205.16L498.67 208.85L496.17 211.35Z" id="a2rp2KxcKf"></path><path d="M473.63 178.06L484.98 178.19L490.61 174.08L484.98 169.96L473.63 169.96L467.53 174.08L473.63 178.06Z" id="b1Bc5YTod9"></path><path d="M485.01 143.78L490.27 135.56L467.76 135.56L472.79 143.78L485.01 143.78Z" id="b2EmYzPCtA"></path><path d="M462.78 136.88L468.09 146.07L468.09 167L461.9 171.82L459.34 169.76L459.09 143.07L460.28 139.38L462.78 136.88Z" id="a3tRac0oiY"></path></defs><g><g><g><filter id="shadow3830627" x="449.09" y="185.12" width="63.52" height="48.73" filterUnits="userSpaceOnUse" primitiveUnits="userSpaceOnUse"><feFlood></feFlood><feComposite in2="SourceAlpha" operator="in"></feComposite><feGaussianBlur stdDeviation="2.24"></feGaussianBlur><feOffset dx="3" dy="2.5" result="afterOffset"></feOffset><feFlood flood-color="#000000" flood-opacity="0.5"></feFlood><feComposite in2="afterOffset" operator="in"></feComposite><feMorphology operator="dilate" radius="1"></feMorphology><feComposite in2="SourceAlpha" operator="out"></feComposite></filter><path d="M485.34 204.12L490.61 212.35L468.09 212.35L473.13 204.12L485.34 204.12Z" id="d6IEIFwl69" fill="white" fill-opacity="1" filter="url(#shadow3830627)"></path></g><use xlink:href="#dwKb2OQSf" opacity="1" fill="#444540" fill-opacity="1"></use><g><use xlink:href="#dwKb2OQSf" opacity="1" fill-opacity="0" stroke="#424440" stroke-width="1" stroke-opacity="1"></use></g></g><g><g><filter id="shadow5249650" x="471.94" y="117.88" width="50" height="75.44" filterUnits="userSpaceOnUse" primitiveUnits="userSpaceOnUse"><feFlood></feFlood><feComposite in2="SourceAlpha" operator="in"></feComposite><feGaussianBlur stdDeviation="2.24"></feGaussianBlur><feOffset dx="3" dy="2.5" result="afterOffset"></feOffset><feFlood flood-color="#000000" flood-opacity="0.5"></feFlood><feComposite in2="afterOffset" operator="in"></feComposite><feMorphology operator="dilate" radius="1"></feMorphology><feComposite in2="SourceAlpha" operator="out"></feComposite></filter><path d="M496.25 136.88L490.94 146.07L490.94 167L497.13 171.82L499.69 169.76L499.94 143.07L498.76 139.38L496.25 136.88Z" id="a2INxwl8XH" fill="white" fill-opacity="1" filter="url(#shadow5249650)"></path></g><use xlink:href="#c6y0tt14a" opacity="1" fill="#444540" fill-opacity="1"></use><g><use xlink:href="#c6y0tt14a" opacity="1" fill-opacity="0" stroke="#444540" stroke-width="1" stroke-opacity="1"></use></g></g><g><g><filter id="shadow1377039" x="440.09" y="157.41" width="50" height="75.44" filterUnits="userSpaceOnUse" primitiveUnits="userSpaceOnUse"><feFlood></feFlood><feComposite in2="SourceAlpha" operator="in"></feComposite><feGaussianBlur stdDeviation="2.24"></feGaussianBlur><feOffset dx="3" dy="2.5" result="afterOffset"></feOffset><feFlood flood-color="#000000" flood-opacity="0.5"></feFlood><feComposite in2="afterOffset" operator="in"></feComposite><feMorphology operator="dilate" radius="1"></feMorphology><feComposite in2="SourceAlpha" operator="out"></feComposite></filter><path d="M462.78 211.35L468.09 202.16L468.09 181.22L461.9 176.41L459.34 178.47L459.09 205.16L460.28 208.85L462.78 211.35Z" id="gZxQ8LzZu" fill="white" fill-opacity="1" filter="url(#shadow1377039)"></path></g><use xlink:href="#c2aBl8vA2o" opacity="1" fill="#444540" fill-opacity="1"></use><g><use xlink:href="#c2aBl8vA2o" opacity="1" fill-opacity="0" stroke="#444540" stroke-width="1" stroke-opacity="1"></use></g></g><g><g><filter id="shadow388104" x="471.86" y="157.41" width="50" height="75.44" filterUnits="userSpaceOnUse" primitiveUnits="userSpaceOnUse"><feFlood></feFlood><feComposite in2="SourceAlpha" operator="in"></feComposite><feGaussianBlur stdDeviation="2.24"></feGaussianBlur><feOffset dx="3" dy="2.5" result="afterOffset"></feOffset><feFlood flood-color="#000000" flood-opacity="0.5"></feFlood><feComposite in2="afterOffset" operator="in"></feComposite><feMorphology operator="dilate" radius="1"></feMorphology><feComposite in2="SourceAlpha" operator="out"></feComposite></filter><path d="M496.17 211.35L490.86 202.16L490.86 181.22L497.04 176.41L499.61 178.47L499.86 205.16L498.67 208.85L496.17 211.35Z" id="b8stGZE5V" fill="white" fill-opacity="1" filter="url(#shadow388104)"></path></g><use xlink:href="#a2rp2KxcKf" opacity="1" fill="#444540" fill-opacity="1"></use><g><use xlink:href="#a2rp2KxcKf" opacity="1" fill-opacity="0" stroke="#444540" stroke-width="1" stroke-opacity="1"></use></g></g><g><g><filter id="shadow1601186" x="448.53" y="150.96" width="64.08" height="48.73" filterUnits="userSpaceOnUse" primitiveUnits="userSpaceOnUse"><feFlood></feFlood><feComposite in2="SourceAlpha" operator="in"></feComposite><feGaussianBlur stdDeviation="2.24"></feGaussianBlur><feOffset dx="3" dy="2.5" result="afterOffset"></feOffset><feFlood flood-color="#000000" flood-opacity="0.5"></feFlood><feComposite in2="afterOffset" operator="in"></feComposite><feMorphology operator="dilate" radius="1"></feMorphology><feComposite in2="SourceAlpha" operator="out"></feComposite></filter><path d="M473.63 178.06L484.98 178.19L490.61 174.08L484.98 169.96L473.63 169.96L467.53 174.08L473.63 178.06Z" id="drWtYcCNF" fill="white" fill-opacity="1" filter="url(#shadow1601186)"></path></g><use xlink:href="#b1Bc5YTod9" opacity="1" fill="#444540" fill-opacity="1"></use><g><use xlink:href="#b1Bc5YTod9" opacity="1" fill-opacity="0" stroke="#444540" stroke-width="1" stroke-opacity="1"></use></g></g><g><g><filter id="shadow16244595" x="448.76" y="116.56" width="63.52" height="48.72" filterUnits="userSpaceOnUse" primitiveUnits="userSpaceOnUse"><feFlood></feFlood><feComposite in2="SourceAlpha" operator="in"></feComposite><feGaussianBlur stdDeviation="2.24"></feGaussianBlur><feOffset dx="3" dy="2.5" result="afterOffset"></feOffset><feFlood flood-color="#000000" flood-opacity="0.5"></feFlood><feComposite in2="afterOffset" operator="in"></feComposite><feMorphology operator="dilate" radius="1"></feMorphology><feComposite in2="SourceAlpha" operator="out"></feComposite></filter><path d="M485.01 143.78L490.27 135.56L467.76 135.56L472.79 143.78L485.01 143.78Z" id="b17tWZryr" fill="white" fill-opacity="1" filter="url(#shadow16244595)"></path></g><use xlink:href="#b2EmYzPCtA" opacity="1" fill="#444540" fill-opacity="1"></use><g><use xlink:href="#b2EmYzPCtA" opacity="1" fill-opacity="0" stroke="#444540" stroke-width="1" stroke-opacity="1"></use></g></g><g><g><filter id="shadow8707536" x="440.09" y="117.88" width="50" height="75.44" filterUnits="userSpaceOnUse" primitiveUnits="userSpaceOnUse"><feFlood></feFlood><feComposite in2="SourceAlpha" operator="in"></feComposite><feGaussianBlur stdDeviation="2.24"></feGaussianBlur><feOffset dx="3" dy="2.5" result="afterOffset"></feOffset><feFlood flood-color="#000000" flood-opacity="0.5"></feFlood><feComposite in2="afterOffset" operator="in"></feComposite><feMorphology operator="dilate" radius="1"></feMorphology><feComposite in2="SourceAlpha" operator="out"></feComposite></filter><path d="M462.78 136.88L468.09 146.07L468.09 167L461.9 171.82L459.34 169.76L459.09 143.07L460.28 139.38L462.78 136.88Z" id="cYa4xbCFG" fill="white" fill-opacity="1" filter="url(#shadow8707536)"></path></g><use xlink:href="#a3tRac0oiY" opacity="1" fill="#444540" fill-opacity="1"></use><g><use xlink:href="#a3tRac0oiY" opacity="1" fill-opacity="0" stroke="#444540" stroke-width="1" stroke-opacity="1"></use></g></g></g></svg>