<?xml version="1.0" encoding="UTF-8" standalone="no"?>
<!DOCTYPE svg PUBLIC "-//W3C//DTD SVG 1.1//EN" "http://www.w3.org/Graphics/SVG/1.1/DTD/svg11.dtd">
<svg version="1.1" xmlns="http://www.w3.org/2000/svg" xmlns:xlink="http://www.w3.org/1999/xlink" preserveAspectRatio="xMidYMid meet" viewBox="384.6847488905287 30.186149122807535 52.84975438596513 88.78579575847192" width="40.85" height="76.79"><defs><path d="M413.94 102.25L419.2 110.47L396.68 110.47L401.72 102.25L413.94 102.25Z" id="bwX4P45D4"></path><path d="M424.84 35.01L419.53 44.2L419.53 65.13L425.72 69.94L428.29 67.88L428.53 41.2L427.35 37.51L424.84 35.01Z" id="b49wyEXxY"></path><path d="M391.37 109.47L396.68 100.28L396.68 79.34L390.5 74.54L387.93 76.6L387.68 103.28L388.87 106.97L391.37 109.47Z" id="a2OcPLwVCs"></path><path d="M424.76 109.47L419.45 100.28L419.45 79.34L425.64 74.54L428.2 76.6L428.45 103.28L427.27 106.97L424.76 109.47Z" id="edZufY4uB"></path><path d="M402.22 76.19L413.57 76.32L419.2 72.2L413.57 68.09L402.22 68.09L396.12 72.2L402.22 76.19Z" id="e2GcIZWLDa"></path><path d="M413.6 41.9L418.87 33.69L396.35 33.69L401.39 41.9L413.6 41.9Z" id="bhlHIQrOr"></path><path d="M391.37 35.01L396.68 44.2L396.68 65.13L390.5 69.94L387.93 67.88L387.68 41.2L388.87 37.51L391.37 35.01Z" id="adxOowRXz"></path></defs><g><g><g><filter id="shadow4399082" x="377.68" y="83.25" width="63.52" height="48.73" filterUnits="userSpaceOnUse" primitiveUnits="userSpaceOnUse"><feFlood></feFlood><feComposite in2="SourceAlpha" operator="in"></feComposite><feGaussianBlur stdDeviation="2.24"></feGaussianBlur><feOffset dx="3" dy="2.5" result="afterOffset"></feOffset><feFlood flood-color="#000000" flood-opacity="0.5"></feFlood><feComposite in2="afterOffset" operator="in"></feComposite><feMorphology operator="dilate" radius="1"></feMorphology><feComposite in2="SourceAlpha" operator="out"></feComposite></filter><path d="M413.94 102.25L419.2 110.47L396.68 110.47L401.72 102.25L413.94 102.25Z" id="e1rNojKHVz" fill="white" fill-opacity="1" filter="url(#shadow4399082)"></path></g><use xlink:href="#bwX4P45D4" opacity="1" fill="#444540" fill-opacity="1"></use><g><use xlink:href="#bwX4P45D4" opacity="1" fill-opacity="0" stroke="#424440" stroke-width="1" stroke-opacity="1"></use></g></g><g><use xlink:href="#b49wyEXxY" opacity="1" fill="#a2b09f" fill-opacity="1"></use><g><use xlink:href="#b49wyEXxY" opacity="1" fill-opacity="0" stroke="#a2b09f" stroke-width="1" stroke-opacity="1"></use></g></g><g><use xlink:href="#a2OcPLwVCs" opacity="1" fill="#a2b09f" fill-opacity="1"></use><g><use xlink:href="#a2OcPLwVCs" opacity="1" fill-opacity="0" stroke="#a2b09f" stroke-width="1" stroke-opacity="1"></use></g></g><g><g><filter id="shadow7367299" x="400.45" y="55.54" width="50" height="75.44" filterUnits="userSpaceOnUse" primitiveUnits="userSpaceOnUse"><feFlood></feFlood><feComposite in2="SourceAlpha" operator="in"></feComposite><feGaussianBlur stdDeviation="2.24"></feGaussianBlur><feOffset dx="3" dy="2.5" result="afterOffset"></feOffset><feFlood flood-color="#000000" flood-opacity="0.5"></feFlood><feComposite in2="afterOffset" operator="in"></feComposite><feMorphology operator="dilate" radius="1"></feMorphology><feComposite in2="SourceAlpha" operator="out"></feComposite></filter><path d="M424.76 109.47L419.45 100.28L419.45 79.34L425.64 74.54L428.2 76.6L428.45 103.28L427.27 106.97L424.76 109.47Z" id="b1LCSPxPz9" fill="white" fill-opacity="1" filter="url(#shadow7367299)"></path></g><use xlink:href="#edZufY4uB" opacity="1" fill="#444540" fill-opacity="1"></use><g><use xlink:href="#edZufY4uB" opacity="1" fill-opacity="0" stroke="#444540" stroke-width="1" stroke-opacity="1"></use></g></g><g><g><filter id="shadow10037867" x="377.12" y="49.09" width="64.08" height="48.73" filterUnits="userSpaceOnUse" primitiveUnits="userSpaceOnUse"><feFlood></feFlood><feComposite in2="SourceAlpha" operator="in"></feComposite><feGaussianBlur stdDeviation="2.24"></feGaussianBlur><feOffset dx="3" dy="2.5" result="afterOffset"></feOffset><feFlood flood-color="#000000" flood-opacity="0.5"></feFlood><feComposite in2="afterOffset" operator="in"></feComposite><feMorphology operator="dilate" radius="1"></feMorphology><feComposite in2="SourceAlpha" operator="out"></feComposite></filter><path d="M402.22 76.19L413.57 76.32L419.2 72.2L413.57 68.09L402.22 68.09L396.12 72.2L402.22 76.19Z" id="a6ZykkojF" fill="white" fill-opacity="1" filter="url(#shadow10037867)"></path></g><use xlink:href="#e2GcIZWLDa" opacity="1" fill="#444540" fill-opacity="1"></use><g><use xlink:href="#e2GcIZWLDa" opacity="1" fill-opacity="0" stroke="#444540" stroke-width="1" stroke-opacity="1"></use></g></g><g><g><filter id="shadow10224016" x="377.35" y="14.69" width="63.52" height="48.72" filterUnits="userSpaceOnUse" primitiveUnits="userSpaceOnUse"><feFlood></feFlood><feComposite in2="SourceAlpha" operator="in"></feComposite><feGaussianBlur stdDeviation="2.24"></feGaussianBlur><feOffset dx="3" dy="2.5" result="afterOffset"></feOffset><feFlood flood-color="#000000" flood-opacity="0.5"></feFlood><feComposite in2="afterOffset" operator="in"></feComposite><feMorphology operator="dilate" radius="1"></feMorphology><feComposite in2="SourceAlpha" operator="out"></feComposite></filter><path d="M413.6 41.9L418.87 33.69L396.35 33.69L401.39 41.9L413.6 41.9Z" id="c7vWKtCMkS" fill="white" fill-opacity="1" filter="url(#shadow10224016)"></path></g><use xlink:href="#bhlHIQrOr" opacity="1" fill="#444540" fill-opacity="1"></use><g><use xlink:href="#bhlHIQrOr" opacity="1" fill-opacity="0" stroke="#444540" stroke-width="1" stroke-opacity="1"></use></g></g><g><g><filter id="shadow14118044" x="368.68" y="16.01" width="50" height="75.44" filterUnits="userSpaceOnUse" primitiveUnits="userSpaceOnUse"><feFlood></feFlood><feComposite in2="SourceAlpha" operator="in"></feComposite><feGaussianBlur stdDeviation="2.24"></feGaussianBlur><feOffset dx="3" dy="2.5" result="afterOffset"></feOffset><feFlood flood-color="#000000" flood-opacity="0.5"></feFlood><feComposite in2="afterOffset" operator="in"></feComposite><feMorphology operator="dilate" radius="1"></feMorphology><feComposite in2="SourceAlpha" operator="out"></feComposite></filter><path d="M391.37 35.01L396.68 44.2L396.68 65.13L390.5 69.94L387.93 67.88L387.68 41.2L388.87 37.51L391.37 35.01Z" id="b1VKhbnVqs" fill="white" fill-opacity="1" filter="url(#shadow14118044)"></path></g><use xlink:href="#adxOowRXz" opacity="1" fill="#444540" fill-opacity="1"></use><g><use xlink:href="#adxOowRXz" opacity="1" fill-opacity="0" stroke="#444540" stroke-width="1" stroke-opacity="1"></use></g></g></g></svg>