<?xml version="1.0" encoding="UTF-8" standalone="no"?>
<!DOCTYPE svg PUBLIC "-//W3C//DTD SVG 1.1//EN" "http://www.w3.org/Graphics/SVG/1.1/DTD/svg11.dtd">
<svg version="1.1" xmlns="http://www.w3.org/2000/svg" xmlns:xlink="http://www.w3.org/1999/xlink" preserveAspectRatio="xMidYMid meet" viewBox="316.8722488905287 29.561149122807535 52.84975438596513 88.78579575847192" width="40.85" height="76.79"><defs><path d="M346.12 101.62L351.39 109.85L328.87 109.85L333.91 101.62L346.12 101.62Z" id="ccQg7iG9y"></path><path d="M357.03 34.38L351.72 43.57L351.72 64.5L357.91 69.32L360.47 67.26L360.72 40.57L359.54 36.88L357.03 34.38Z" id="poIMQxWx"></path><path d="M323.56 108.85L328.87 99.66L328.87 78.72L322.68 73.91L320.12 75.97L319.87 102.66L321.06 106.35L323.56 108.85Z" id="aevP2nQJI"></path><path d="M356.95 108.85L351.64 99.66L351.64 78.72L357.83 73.91L360.39 75.97L360.64 102.66L359.45 106.35L356.95 108.85Z" id="bglFge3z"></path><path d="M334.41 75.56L345.76 75.69L351.39 71.58L345.76 67.46L334.41 67.46L328.31 71.58L334.41 75.56Z" id="c5kJ3gcq7"></path><path d="M345.79 41.28L351.06 33.06L328.54 33.06L333.58 41.28L345.79 41.28Z" id="aGYgfiWOb"></path><path d="M323.56 34.38L328.87 43.57L328.87 64.5L322.68 69.32L320.12 67.26L319.87 40.57L321.06 36.88L323.56 34.38Z" id="b46udioQy2"></path></defs><g><g><use xlink:href="#ccQg7iG9y" opacity="1" fill="#a2b09f" fill-opacity="1"></use><g><use xlink:href="#ccQg7iG9y" opacity="1" fill-opacity="0" stroke="#a2b09f" stroke-width="1" stroke-opacity="1"></use></g></g><g><g><filter id="shadow8153803" x="332.72" y="15.38" width="50" height="75.44" filterUnits="userSpaceOnUse" primitiveUnits="userSpaceOnUse"><feFlood></feFlood><feComposite in2="SourceAlpha" operator="in"></feComposite><feGaussianBlur stdDeviation="2.24"></feGaussianBlur><feOffset dx="3" dy="2.5" result="afterOffset"></feOffset><feFlood flood-color="#000000" flood-opacity="0.5"></feFlood><feComposite in2="afterOffset" operator="in"></feComposite><feMorphology operator="dilate" radius="1"></feMorphology><feComposite in2="SourceAlpha" operator="out"></feComposite></filter><path d="M357.03 34.38L351.72 43.57L351.72 64.5L357.91 69.32L360.47 67.26L360.72 40.57L359.54 36.88L357.03 34.38Z" id="egkNUgpo0" fill="white" fill-opacity="1" filter="url(#shadow8153803)"></path></g><use xlink:href="#poIMQxWx" opacity="1" fill="#444540" fill-opacity="1"></use><g><use xlink:href="#poIMQxWx" opacity="1" fill-opacity="0" stroke="#444540" stroke-width="1" stroke-opacity="1"></use></g></g><g><use xlink:href="#aevP2nQJI" opacity="1" fill="#a2b09f" fill-opacity="1"></use><g><use xlink:href="#aevP2nQJI" opacity="1" fill-opacity="0" stroke="#a2b09f" stroke-width="1" stroke-opacity="1"></use></g></g><g><g><filter id="shadow12309508" x="332.64" y="54.91" width="50" height="75.44" filterUnits="userSpaceOnUse" primitiveUnits="userSpaceOnUse"><feFlood></feFlood><feComposite in2="SourceAlpha" operator="in"></feComposite><feGaussianBlur stdDeviation="2.24"></feGaussianBlur><feOffset dx="3" dy="2.5" result="afterOffset"></feOffset><feFlood flood-color="#000000" flood-opacity="0.5"></feFlood><feComposite in2="afterOffset" operator="in"></feComposite><feMorphology operator="dilate" radius="1"></feMorphology><feComposite in2="SourceAlpha" operator="out"></feComposite></filter><path d="M356.95 108.85L351.64 99.66L351.64 78.72L357.83 73.91L360.39 75.97L360.64 102.66L359.45 106.35L356.95 108.85Z" id="b6gJ89OejR" fill="white" fill-opacity="1" filter="url(#shadow12309508)"></path></g><use xlink:href="#bglFge3z" opacity="1" fill="#444540" fill-opacity="1"></use><g><use xlink:href="#bglFge3z" opacity="1" fill-opacity="0" stroke="#444540" stroke-width="1" stroke-opacity="1"></use></g></g><g><g><filter id="shadow5095905" x="309.31" y="48.46" width="64.08" height="48.73" filterUnits="userSpaceOnUse" primitiveUnits="userSpaceOnUse"><feFlood></feFlood><feComposite in2="SourceAlpha" operator="in"></feComposite><feGaussianBlur stdDeviation="2.24"></feGaussianBlur><feOffset dx="3" dy="2.5" result="afterOffset"></feOffset><feFlood flood-color="#000000" flood-opacity="0.5"></feFlood><feComposite in2="afterOffset" operator="in"></feComposite><feMorphology operator="dilate" radius="1"></feMorphology><feComposite in2="SourceAlpha" operator="out"></feComposite></filter><path d="M334.41 75.56L345.76 75.69L351.39 71.58L345.76 67.46L334.41 67.46L328.31 71.58L334.41 75.56Z" id="cbK1XNa5t" fill="white" fill-opacity="1" filter="url(#shadow5095905)"></path></g><use xlink:href="#c5kJ3gcq7" opacity="1" fill="#444540" fill-opacity="1"></use><g><use xlink:href="#c5kJ3gcq7" opacity="1" fill-opacity="0" stroke="#444540" stroke-width="1" stroke-opacity="1"></use></g></g><g><use xlink:href="#aGYgfiWOb" opacity="1" fill="#a2b09f" fill-opacity="1"></use><g><use xlink:href="#aGYgfiWOb" opacity="1" fill-opacity="0" stroke="#a2b09f" stroke-width="1" stroke-opacity="1"></use></g></g><g><g><filter id="shadow3043620" x="300.87" y="15.38" width="50" height="75.44" filterUnits="userSpaceOnUse" primitiveUnits="userSpaceOnUse"><feFlood></feFlood><feComposite in2="SourceAlpha" operator="in"></feComposite><feGaussianBlur stdDeviation="2.24"></feGaussianBlur><feOffset dx="3" dy="2.5" result="afterOffset"></feOffset><feFlood flood-color="#000000" flood-opacity="0.5"></feFlood><feComposite in2="afterOffset" operator="in"></feComposite><feMorphology operator="dilate" radius="1"></feMorphology><feComposite in2="SourceAlpha" operator="out"></feComposite></filter><path d="M323.56 34.38L328.87 43.57L328.87 64.5L322.68 69.32L320.12 67.26L319.87 40.57L321.06 36.88L323.56 34.38Z" id="c3qJRE8Xrc" fill="white" fill-opacity="1" filter="url(#shadow3043620)"></path></g><use xlink:href="#b46udioQy2" opacity="1" fill="#444540" fill-opacity="1"></use><g><use xlink:href="#b46udioQy2" opacity="1" fill-opacity="0" stroke="#444540" stroke-width="1" stroke-opacity="1"></use></g></g></g></svg>