<?xml version="1.0" encoding="UTF-8" standalone="no"?>
<!DOCTYPE svg PUBLIC "-//W3C//DTD SVG 1.1//EN" "http://www.w3.org/Graphics/SVG/1.1/DTD/svg11.dtd">
<svg version="1.1" xmlns="http://www.w3.org/2000/svg" xmlns:xlink="http://www.w3.org/1999/xlink" preserveAspectRatio="xMidYMid meet" viewBox="23.90349889052868 146.74864912280754 52.84975438596513 88.78579575847192" width="40.85" height="76.79"><defs><path d="M53.15 218.81L58.42 227.03L35.9 227.03L40.94 218.81L53.15 218.81Z" id="d2VufNM2Tl"></path><path d="M64.06 151.57L58.75 160.76L58.75 181.69L64.94 186.51L67.51 184.44L67.75 157.76L66.57 154.07L64.06 151.57Z" id="arVntwO1P"></path><path d="M30.59 226.03L35.9 216.85L35.9 195.91L29.72 191.1L27.15 193.16L26.9 219.85L28.09 223.54L30.59 226.03Z" id="i1NLgPAHEQ"></path><path d="M63.98 226.03L58.67 216.85L58.67 195.91L64.86 191.1L67.42 193.16L67.67 219.85L66.48 223.54L63.98 226.03Z" id="bDfS9KVa6"></path><path d="M41.44 192.75L52.79 192.88L58.42 188.77L52.79 184.65L41.44 184.65L35.34 188.77L41.44 192.75Z" id="d2mUVoVHi7"></path><path d="M52.82 158.47L58.09 150.25L35.57 150.25L40.61 158.47L52.82 158.47Z" id="caobcmLkM2"></path><path d="M30.59 151.57L35.9 160.76L35.9 181.69L29.72 186.51L27.15 184.44L26.9 157.76L28.09 154.07L30.59 151.57Z" id="b1dj40zsiO"></path></defs><g><g><g><filter id="shadow8594184" x="16.9" y="199.81" width="63.52" height="48.73" filterUnits="userSpaceOnUse" primitiveUnits="userSpaceOnUse"><feFlood></feFlood><feComposite in2="SourceAlpha" operator="in"></feComposite><feGaussianBlur stdDeviation="2.24"></feGaussianBlur><feOffset dx="3" dy="2.5" result="afterOffset"></feOffset><feFlood flood-color="#000000" flood-opacity="0.5"></feFlood><feComposite in2="afterOffset" operator="in"></feComposite><feMorphology operator="dilate" radius="1"></feMorphology><feComposite in2="SourceAlpha" operator="out"></feComposite></filter><path d="M53.15 218.81L58.42 227.03L35.9 227.03L40.94 218.81L53.15 218.81Z" id="f2x7L32iDK" fill="white" fill-opacity="1" filter="url(#shadow8594184)"></path></g><use xlink:href="#d2VufNM2Tl" opacity="1" fill="#444540" fill-opacity="1"></use><g><use xlink:href="#d2VufNM2Tl" opacity="1" fill-opacity="0" stroke="#424440" stroke-width="1" stroke-opacity="1"></use></g></g><g><g><filter id="shadow11645628" x="39.75" y="132.57" width="50" height="75.44" filterUnits="userSpaceOnUse" primitiveUnits="userSpaceOnUse"><feFlood></feFlood><feComposite in2="SourceAlpha" operator="in"></feComposite><feGaussianBlur stdDeviation="2.24"></feGaussianBlur><feOffset dx="3" dy="2.5" result="afterOffset"></feOffset><feFlood flood-color="#000000" flood-opacity="0.5"></feFlood><feComposite in2="afterOffset" operator="in"></feComposite><feMorphology operator="dilate" radius="1"></feMorphology><feComposite in2="SourceAlpha" operator="out"></feComposite></filter><path d="M64.06 151.57L58.75 160.76L58.75 181.69L64.94 186.51L67.51 184.44L67.75 157.76L66.57 154.07L64.06 151.57Z" id="aeTkngWv3" fill="white" fill-opacity="1" filter="url(#shadow11645628)"></path></g><use xlink:href="#arVntwO1P" opacity="1" fill="#444540" fill-opacity="1"></use><g><use xlink:href="#arVntwO1P" opacity="1" fill-opacity="0" stroke="#444540" stroke-width="1" stroke-opacity="1"></use></g></g><g><use xlink:href="#i1NLgPAHEQ" opacity="1" fill="#a2b09f" fill-opacity="1"></use><g><use xlink:href="#i1NLgPAHEQ" opacity="1" fill-opacity="0" stroke="#a2b09f" stroke-width="1" stroke-opacity="1"></use></g></g><g><g><filter id="shadow3356239" x="39.67" y="172.1" width="50" height="75.44" filterUnits="userSpaceOnUse" primitiveUnits="userSpaceOnUse"><feFlood></feFlood><feComposite in2="SourceAlpha" operator="in"></feComposite><feGaussianBlur stdDeviation="2.24"></feGaussianBlur><feOffset dx="3" dy="2.5" result="afterOffset"></feOffset><feFlood flood-color="#000000" flood-opacity="0.5"></feFlood><feComposite in2="afterOffset" operator="in"></feComposite><feMorphology operator="dilate" radius="1"></feMorphology><feComposite in2="SourceAlpha" operator="out"></feComposite></filter><path d="M63.98 226.03L58.67 216.85L58.67 195.91L64.86 191.1L67.42 193.16L67.67 219.85L66.48 223.54L63.98 226.03Z" id="i6wfY8P2Dd" fill="white" fill-opacity="1" filter="url(#shadow3356239)"></path></g><use xlink:href="#bDfS9KVa6" opacity="1" fill="#444540" fill-opacity="1"></use><g><use xlink:href="#bDfS9KVa6" opacity="1" fill-opacity="0" stroke="#444540" stroke-width="1" stroke-opacity="1"></use></g></g><g><g><filter id="shadow14984918" x="16.34" y="165.65" width="64.08" height="48.73" filterUnits="userSpaceOnUse" primitiveUnits="userSpaceOnUse"><feFlood></feFlood><feComposite in2="SourceAlpha" operator="in"></feComposite><feGaussianBlur stdDeviation="2.24"></feGaussianBlur><feOffset dx="3" dy="2.5" result="afterOffset"></feOffset><feFlood flood-color="#000000" flood-opacity="0.5"></feFlood><feComposite in2="afterOffset" operator="in"></feComposite><feMorphology operator="dilate" radius="1"></feMorphology><feComposite in2="SourceAlpha" operator="out"></feComposite></filter><path d="M41.44 192.75L52.79 192.88L58.42 188.77L52.79 184.65L41.44 184.65L35.34 188.77L41.44 192.75Z" id="cmcWvp0vt" fill="white" fill-opacity="1" filter="url(#shadow14984918)"></path></g><use xlink:href="#d2mUVoVHi7" opacity="1" fill="#444540" fill-opacity="1"></use><g><use xlink:href="#d2mUVoVHi7" opacity="1" fill-opacity="0" stroke="#444540" stroke-width="1" stroke-opacity="1"></use></g></g><g><g><filter id="shadow1146028" x="16.57" y="131.25" width="63.52" height="48.72" filterUnits="userSpaceOnUse" primitiveUnits="userSpaceOnUse"><feFlood></feFlood><feComposite in2="SourceAlpha" operator="in"></feComposite><feGaussianBlur stdDeviation="2.24"></feGaussianBlur><feOffset dx="3" dy="2.5" result="afterOffset"></feOffset><feFlood flood-color="#000000" flood-opacity="0.5"></feFlood><feComposite in2="afterOffset" operator="in"></feComposite><feMorphology operator="dilate" radius="1"></feMorphology><feComposite in2="SourceAlpha" operator="out"></feComposite></filter><path d="M52.82 158.47L58.09 150.25L35.57 150.25L40.61 158.47L52.82 158.47Z" id="c6Tf8Uz5aU" fill="white" fill-opacity="1" filter="url(#shadow1146028)"></path></g><use xlink:href="#caobcmLkM2" opacity="1" fill="#444540" fill-opacity="1"></use><g><use xlink:href="#caobcmLkM2" opacity="1" fill-opacity="0" stroke="#444540" stroke-width="1" stroke-opacity="1"></use></g></g><g><g><filter id="shadow16636228" x="7.9" y="132.57" width="50" height="75.44" filterUnits="userSpaceOnUse" primitiveUnits="userSpaceOnUse"><feFlood></feFlood><feComposite in2="SourceAlpha" operator="in"></feComposite><feGaussianBlur stdDeviation="2.24"></feGaussianBlur><feOffset dx="3" dy="2.5" result="afterOffset"></feOffset><feFlood flood-color="#000000" flood-opacity="0.5"></feFlood><feComposite in2="afterOffset" operator="in"></feComposite><feMorphology operator="dilate" radius="1"></feMorphology><feComposite in2="SourceAlpha" operator="out"></feComposite></filter><path d="M30.59 151.57L35.9 160.76L35.9 181.69L29.72 186.51L27.15 184.44L26.9 157.76L28.09 154.07L30.59 151.57Z" id="a1sjvLYR0U" fill="white" fill-opacity="1" filter="url(#shadow16636228)"></path></g><use xlink:href="#b1dj40zsiO" opacity="1" fill="#444540" fill-opacity="1"></use><g><use xlink:href="#b1dj40zsiO" opacity="1" fill-opacity="0" stroke="#444540" stroke-width="1" stroke-opacity="1"></use></g></g></g></svg>