<?xml version="1.0" encoding="UTF-8" standalone="no"?>
<!DOCTYPE svg PUBLIC "-//W3C//DTD SVG 1.1//EN" "http://www.w3.org/Graphics/SVG/1.1/DTD/svg11.dtd">
<svg version="1.1" xmlns="http://www.w3.org/2000/svg" xmlns:xlink="http://www.w3.org/1999/xlink" preserveAspectRatio="xMidYMid meet" viewBox="211.43474889052877 153.84239912280756 52.849754385965156 88.78579575847198" width="40.85" height="79.16"><defs><path d="" id="d16GYzM5bP"></path><path d="M240.69 225.9L245.95 234.13L223.43 234.13L228.47 225.9L240.69 225.9Z" id="aXekzt14"></path><path d="M251.59 158.67L246.28 167.85L246.28 188.79L252.47 193.6L255.04 191.54L255.28 164.85L254.1 161.16L251.59 158.67Z" id="b1parLxV9Y"></path><path d="M218.12 233.13L223.43 223.94L223.43 203L217.25 198.19L214.68 200.26L214.43 226.94L215.62 230.63L218.12 233.13Z" id="a1htUHHCwW"></path><path d="M251.51 233.13L246.2 223.94L246.2 203L252.39 198.19L254.95 200.26L255.2 226.94L254.02 230.63L251.51 233.13Z" id="b5hmNOosqZ"></path><path d="M228.97 199.84L240.32 199.98L245.95 195.86L240.32 191.74L228.97 191.74L222.87 195.86L228.97 199.84Z" id="c5xZ6jv5t"></path><path d="M240.35 165.56L245.62 157.34L223.1 157.34L228.14 165.56L240.35 165.56Z" id="e1U0rAzAI7"></path><path d="M218.12 158.67L223.43 167.85L223.43 188.79L217.25 193.6L214.68 191.54L214.43 164.85L215.62 161.16L218.12 158.67Z" id="b121WqVSaF"></path></defs><g><g><g><use xlink:href="#d16GYzM5bP" opacity="1" fill-opacity="0" stroke="#000000" stroke-width="1" stroke-opacity="1"></use></g></g><g><use xlink:href="#aXekzt14" opacity="1" fill="#a2b09f" fill-opacity="1"></use><g><use xlink:href="#aXekzt14" opacity="1" fill-opacity="0" stroke="#a2b09f" stroke-width="1" stroke-opacity="1"></use></g></g><g><use xlink:href="#b1parLxV9Y" opacity="1" fill="#a2b09f" fill-opacity="1"></use><g><use xlink:href="#b1parLxV9Y" opacity="1" fill-opacity="0" stroke="#a2b09f" stroke-width="1" stroke-opacity="1"></use></g></g><g><use xlink:href="#a1htUHHCwW" opacity="1" fill="#a2b09f" fill-opacity="1"></use><g><use xlink:href="#a1htUHHCwW" opacity="1" fill-opacity="0" stroke="#a2b09f" stroke-width="1" stroke-opacity="1"></use></g></g><g><use xlink:href="#b5hmNOosqZ" opacity="1" fill="#a2b09f" fill-opacity="1"></use><g><use xlink:href="#b5hmNOosqZ" opacity="1" fill-opacity="0" stroke="#a2b09f" stroke-width="1" stroke-opacity="1"></use></g></g><g><use xlink:href="#c5xZ6jv5t" opacity="1" fill="#a2b09f" fill-opacity="1"></use><g><use xlink:href="#c5xZ6jv5t" opacity="1" fill-opacity="0" stroke="#a2b09f" stroke-width="1" stroke-opacity="1"></use></g></g><g><use xlink:href="#e1U0rAzAI7" opacity="1" fill="#a2b09f" fill-opacity="1"></use><g><use xlink:href="#e1U0rAzAI7" opacity="1" fill-opacity="0" stroke="#a2b09f" stroke-width="1" stroke-opacity="1"></use></g></g><g><use xlink:href="#b121WqVSaF" opacity="1" fill="#a2b09f" fill-opacity="1"></use><g><use xlink:href="#b121WqVSaF" opacity="1" fill-opacity="0" stroke="#a2b09f" stroke-width="1" stroke-opacity="1"></use></g></g></g></svg>