<?xml version="1.0" encoding="UTF-8" standalone="no"?>
<!DOCTYPE svg PUBLIC "-//W3C//DTD SVG 1.1//EN" "http://www.w3.org/Graphics/SVG/1.1/DTD/svg11.dtd">
<svg version="1.1" xmlns="http://www.w3.org/2000/svg" xmlns:xlink="http://www.w3.org/1999/xlink" preserveAspectRatio="xMidYMid meet" viewBox="103.43474889052868 27.84239912280748 52.84975438596513 88.78579575847198" width="40.85" height="79.16"><defs><path d="" id="a62hcJs9FT"></path><path d="M132.69 99.9L137.95 108.13L115.43 108.13L120.47 99.9L132.69 99.9Z" id="ajVvJc9yU"></path><path d="M143.59 32.67L138.28 41.85L138.28 62.79L144.47 67.6L147.04 65.54L147.28 38.85L146.1 35.16L143.59 32.67Z" id="b82EideW2h"></path><path d="M110.12 107.13L115.43 97.94L115.43 77L109.25 72.19L106.68 74.26L106.43 100.94L107.62 104.63L110.12 107.13Z" id="a23tekhW9j"></path><path d="M143.51 107.13L138.2 97.94L138.2 77L144.39 72.19L146.95 74.26L147.2 100.94L146.02 104.63L143.51 107.13Z" id="b3Q1SDFkwr"></path><path d="M120.97 73.84L132.32 73.98L137.95 69.86L132.32 65.74L120.97 65.74L114.87 69.86L120.97 73.84Z" id="b6ii9Kqlz7"></path><path d="M132.35 39.56L137.62 31.34L115.1 31.34L120.14 39.56L132.35 39.56Z" id="b4J1r1Il8p"></path><path d="M110.12 32.67L115.43 41.85L115.43 62.79L109.25 67.6L106.68 65.54L106.43 38.85L107.62 35.16L110.12 32.67Z" id="b1sEg5eJ8"></path></defs><g><g><g><use xlink:href="#a62hcJs9FT" opacity="1" fill-opacity="0" stroke="#000000" stroke-width="1" stroke-opacity="1"></use></g></g><g><use xlink:href="#ajVvJc9yU" opacity="1" fill="#a2b09f" fill-opacity="1"></use><g><use xlink:href="#ajVvJc9yU" opacity="1" fill-opacity="0" stroke="#a2b09f" stroke-width="1" stroke-opacity="1"></use></g></g><g><g><filter id="shadow16054166" x="119.28" y="13.67" width="50" height="75.44" filterUnits="userSpaceOnUse" primitiveUnits="userSpaceOnUse"><feFlood></feFlood><feComposite in2="SourceAlpha" operator="in"></feComposite><feGaussianBlur stdDeviation="2.24"></feGaussianBlur><feOffset dx="3" dy="2.5" result="afterOffset"></feOffset><feFlood flood-color="#000000" flood-opacity="0.5"></feFlood><feComposite in2="afterOffset" operator="in"></feComposite><feMorphology operator="dilate" radius="1"></feMorphology><feComposite in2="SourceAlpha" operator="out"></feComposite></filter><path d="M143.59 32.67L138.28 41.85L138.28 62.79L144.47 67.6L147.04 65.54L147.28 38.85L146.1 35.16L143.59 32.67Z" id="ftWtw835P" fill="white" fill-opacity="1" filter="url(#shadow16054166)"></path></g><use xlink:href="#b82EideW2h" opacity="1" fill="#444540" fill-opacity="1"></use><g><use xlink:href="#b82EideW2h" opacity="1" fill-opacity="0" stroke="#444540" stroke-width="1" stroke-opacity="1"></use></g></g><g><use xlink:href="#a23tekhW9j" opacity="1" fill="#a2b09f" fill-opacity="1"></use><g><use xlink:href="#a23tekhW9j" opacity="1" fill-opacity="0" stroke="#a2b09f" stroke-width="1" stroke-opacity="1"></use></g></g><g><g><filter id="shadow2593307" x="119.2" y="53.19" width="50" height="75.44" filterUnits="userSpaceOnUse" primitiveUnits="userSpaceOnUse"><feFlood></feFlood><feComposite in2="SourceAlpha" operator="in"></feComposite><feGaussianBlur stdDeviation="2.24"></feGaussianBlur><feOffset dx="3" dy="2.5" result="afterOffset"></feOffset><feFlood flood-color="#000000" flood-opacity="0.5"></feFlood><feComposite in2="afterOffset" operator="in"></feComposite><feMorphology operator="dilate" radius="1"></feMorphology><feComposite in2="SourceAlpha" operator="out"></feComposite></filter><path d="M143.51 107.13L138.2 97.94L138.2 77L144.39 72.19L146.95 74.26L147.2 100.94L146.02 104.63L143.51 107.13Z" id="b1FOBAInRC" fill="white" fill-opacity="1" filter="url(#shadow2593307)"></path></g><use xlink:href="#b3Q1SDFkwr" opacity="1" fill="#444540" fill-opacity="1"></use><g><use xlink:href="#b3Q1SDFkwr" opacity="1" fill-opacity="0" stroke="#444540" stroke-width="1" stroke-opacity="1"></use></g></g><g><use xlink:href="#b6ii9Kqlz7" opacity="1" fill="#a2b09f" fill-opacity="1"></use><g><use xlink:href="#b6ii9Kqlz7" opacity="1" fill-opacity="0" stroke="#a2b09f" stroke-width="1" stroke-opacity="1"></use></g></g><g><use xlink:href="#b4J1r1Il8p" opacity="1" fill="#a2b09f" fill-opacity="1"></use><g><use xlink:href="#b4J1r1Il8p" opacity="1" fill-opacity="0" stroke="#a2b09f" stroke-width="1" stroke-opacity="1"></use></g></g><g><use xlink:href="#b1sEg5eJ8" opacity="1" fill="#a2b09f" fill-opacity="1"></use><g><use xlink:href="#b1sEg5eJ8" opacity="1" fill-opacity="0" stroke="#a2b09f" stroke-width="1" stroke-opacity="1"></use></g></g></g></svg>