<?xml version="1.0" encoding="UTF-8" standalone="no"?>
<!DOCTYPE svg PUBLIC "-//W3C//DTD SVG 1.1//EN" "http://www.w3.org/Graphics/SVG/1.1/DTD/svg11.dtd">
<svg version="1.1" xmlns="http://www.w3.org/2000/svg" xmlns:xlink="http://www.w3.org/1999/xlink" preserveAspectRatio="xMidYMid meet" viewBox="521.0909988905286 32.217399122807535 52.849754385965184 88.78579575847192" width="40.85" height="76.79"><defs><path d="M550.34 104.28L555.61 112.5L533.09 112.5L538.13 104.28L550.34 104.28Z" id="ee1BhrX1I"></path><path d="M561.25 37.04L555.94 46.23L555.94 67.16L562.13 71.98L564.69 69.91L564.94 43.23L563.76 39.54L561.25 37.04Z" id="ahr2xtYN"></path><path d="M527.78 111.5L533.09 102.32L533.09 81.38L526.9 76.57L524.34 78.63L524.09 105.32L525.28 109.01L527.78 111.5Z" id="frMYWk8mC"></path><path d="M561.17 111.5L555.86 102.32L555.86 81.38L562.04 76.57L564.61 78.63L564.86 105.32L563.67 109.01L561.17 111.5Z" id="b24CDE3gBw"></path><path d="M538.63 78.22L549.98 78.35L555.61 74.24L549.98 70.12L538.63 70.12L532.53 74.24L538.63 78.22Z" id="brPpRKqfH"></path><path d="M550.01 43.94L555.27 35.72L532.76 35.72L537.79 43.94L550.01 43.94Z" id="bAONeBpkC"></path><path d="M527.78 37.04L533.09 46.23L533.09 67.16L526.9 71.98L524.34 69.91L524.09 43.23L525.28 39.54L527.78 37.04Z" id="djjt5uio"></path></defs><g><g><use xlink:href="#ee1BhrX1I" opacity="1" fill="#a2b09f" fill-opacity="1"></use><g><use xlink:href="#ee1BhrX1I" opacity="1" fill-opacity="0" stroke="#a2b09f" stroke-width="1" stroke-opacity="1"></use></g></g><g><g><filter id="shadow7220571" x="536.94" y="18.04" width="50" height="75.44" filterUnits="userSpaceOnUse" primitiveUnits="userSpaceOnUse"><feFlood></feFlood><feComposite in2="SourceAlpha" operator="in"></feComposite><feGaussianBlur stdDeviation="2.24"></feGaussianBlur><feOffset dx="3" dy="2.5" result="afterOffset"></feOffset><feFlood flood-color="#000000" flood-opacity="0.5"></feFlood><feComposite in2="afterOffset" operator="in"></feComposite><feMorphology operator="dilate" radius="1"></feMorphology><feComposite in2="SourceAlpha" operator="out"></feComposite></filter><path d="M561.25 37.04L555.94 46.23L555.94 67.16L562.13 71.98L564.69 69.91L564.94 43.23L563.76 39.54L561.25 37.04Z" id="a2xWo9YlbO" fill="white" fill-opacity="1" filter="url(#shadow7220571)"></path></g><use xlink:href="#ahr2xtYN" opacity="1" fill="#444540" fill-opacity="1"></use><g><use xlink:href="#ahr2xtYN" opacity="1" fill-opacity="0" stroke="#444540" stroke-width="1" stroke-opacity="1"></use></g></g><g><use xlink:href="#frMYWk8mC" opacity="1" fill="#a2b09f" fill-opacity="1"></use><g><use xlink:href="#frMYWk8mC" opacity="1" fill-opacity="0" stroke="#a2b09f" stroke-width="1" stroke-opacity="1"></use></g></g><g><g><filter id="shadow14424174" x="536.86" y="57.57" width="50" height="75.44" filterUnits="userSpaceOnUse" primitiveUnits="userSpaceOnUse"><feFlood></feFlood><feComposite in2="SourceAlpha" operator="in"></feComposite><feGaussianBlur stdDeviation="2.24"></feGaussianBlur><feOffset dx="3" dy="2.5" result="afterOffset"></feOffset><feFlood flood-color="#000000" flood-opacity="0.5"></feFlood><feComposite in2="afterOffset" operator="in"></feComposite><feMorphology operator="dilate" radius="1"></feMorphology><feComposite in2="SourceAlpha" operator="out"></feComposite></filter><path d="M561.17 111.5L555.86 102.32L555.86 81.38L562.04 76.57L564.61 78.63L564.86 105.32L563.67 109.01L561.17 111.5Z" id="aEAdtTiIw" fill="white" fill-opacity="1" filter="url(#shadow14424174)"></path></g><use xlink:href="#b24CDE3gBw" opacity="1" fill="#444540" fill-opacity="1"></use><g><use xlink:href="#b24CDE3gBw" opacity="1" fill-opacity="0" stroke="#444540" stroke-width="1" stroke-opacity="1"></use></g></g><g><use xlink:href="#brPpRKqfH" opacity="1" fill="#a2b09f" fill-opacity="1"></use><g><use xlink:href="#brPpRKqfH" opacity="1" fill-opacity="0" stroke="#a2b09f" stroke-width="1" stroke-opacity="1"></use></g></g><g><g><filter id="shadow15917007" x="513.76" y="16.72" width="63.52" height="48.72" filterUnits="userSpaceOnUse" primitiveUnits="userSpaceOnUse"><feFlood></feFlood><feComposite in2="SourceAlpha" operator="in"></feComposite><feGaussianBlur stdDeviation="2.24"></feGaussianBlur><feOffset dx="3" dy="2.5" result="afterOffset"></feOffset><feFlood flood-color="#000000" flood-opacity="0.5"></feFlood><feComposite in2="afterOffset" operator="in"></feComposite><feMorphology operator="dilate" radius="1"></feMorphology><feComposite in2="SourceAlpha" operator="out"></feComposite></filter><path d="M550.01 43.94L555.27 35.72L532.76 35.72L537.79 43.94L550.01 43.94Z" id="as5Fj85xP" fill="white" fill-opacity="1" filter="url(#shadow15917007)"></path></g><use xlink:href="#bAONeBpkC" opacity="1" fill="#444540" fill-opacity="1"></use><g><use xlink:href="#bAONeBpkC" opacity="1" fill-opacity="0" stroke="#444540" stroke-width="1" stroke-opacity="1"></use></g></g><g><use xlink:href="#djjt5uio" opacity="1" fill="#a2b09f" fill-opacity="1"></use><g><use xlink:href="#djjt5uio" opacity="1" fill-opacity="0" stroke="#a2b09f" stroke-width="1" stroke-opacity="1"></use></g></g></g></svg>