<?xml version="1.0" encoding="UTF-8" standalone="no"?>
<!DOCTYPE svg PUBLIC "-//W3C//DTD SVG 1.1//EN" "http://www.w3.org/Graphics/SVG/1.1/DTD/svg11.dtd">
<svg version="1.1" xmlns="http://www.w3.org/2000/svg" xmlns:xlink="http://www.w3.org/1999/xlink" preserveAspectRatio="xMidYMid meet" viewBox="452.4972488905287 31.592399122807535 52.84975438596513 88.78579575847192" width="40.85" height="76.79"><defs><path d="M481.75 103.65L487.01 111.88L464.5 111.88L469.53 103.65L481.75 103.65Z" id="f1ji4iI2AG"></path><path d="M492.66 36.42L487.35 45.6L487.35 66.54L493.53 71.35L496.1 69.29L496.35 42.6L495.16 38.91L492.66 36.42Z" id="a9DuJjNMFt"></path><path d="M459.19 110.88L464.5 101.69L464.5 80.75L458.31 75.94L455.74 78.01L455.5 104.69L456.68 108.38L459.19 110.88Z" id="b4z7SPD73k"></path><path d="M492.57 110.88L487.26 101.69L487.26 80.75L493.45 75.94L496.02 78.01L496.26 104.69L495.08 108.38L492.57 110.88Z" id="d42wAPxDgm"></path><path d="M470.04 77.59L481.39 77.73L487.01 73.61L481.39 69.49L470.04 69.49L463.93 73.61L470.04 77.59Z" id="bY06bC9EK"></path><path d="M481.41 43.31L486.68 35.09L464.16 35.09L469.2 43.31L481.41 43.31Z" id="ashuc3L00"></path><path d="M459.19 36.42L464.5 45.6L464.5 66.54L458.31 71.35L455.74 69.29L455.5 42.6L456.68 38.91L459.19 36.42Z" id="adIXCPuXI"></path></defs><g><g><g><filter id="shadow10666382" x="445.5" y="84.65" width="63.52" height="48.73" filterUnits="userSpaceOnUse" primitiveUnits="userSpaceOnUse"><feFlood></feFlood><feComposite in2="SourceAlpha" operator="in"></feComposite><feGaussianBlur stdDeviation="2.24"></feGaussianBlur><feOffset dx="3" dy="2.5" result="afterOffset"></feOffset><feFlood flood-color="#000000" flood-opacity="0.5"></feFlood><feComposite in2="afterOffset" operator="in"></feComposite><feMorphology operator="dilate" radius="1"></feMorphology><feComposite in2="SourceAlpha" operator="out"></feComposite></filter><path d="M481.75 103.65L487.01 111.88L464.5 111.88L469.53 103.65L481.75 103.65Z" id="b3OhtYvIi" fill="white" fill-opacity="1" filter="url(#shadow10666382)"></path></g><use xlink:href="#f1ji4iI2AG" opacity="1" fill="#444540" fill-opacity="1"></use><g><use xlink:href="#f1ji4iI2AG" opacity="1" fill-opacity="0" stroke="#424440" stroke-width="1" stroke-opacity="1"></use></g></g><g><use xlink:href="#a9DuJjNMFt" opacity="1" fill="#a2b09f" fill-opacity="1"></use><g><use xlink:href="#a9DuJjNMFt" opacity="1" fill-opacity="0" stroke="#a2b09f" stroke-width="1" stroke-opacity="1"></use></g></g><g><g><filter id="shadow8805218" x="436.5" y="56.94" width="50" height="75.44" filterUnits="userSpaceOnUse" primitiveUnits="userSpaceOnUse"><feFlood></feFlood><feComposite in2="SourceAlpha" operator="in"></feComposite><feGaussianBlur stdDeviation="2.24"></feGaussianBlur><feOffset dx="3" dy="2.5" result="afterOffset"></feOffset><feFlood flood-color="#000000" flood-opacity="0.5"></feFlood><feComposite in2="afterOffset" operator="in"></feComposite><feMorphology operator="dilate" radius="1"></feMorphology><feComposite in2="SourceAlpha" operator="out"></feComposite></filter><path d="M459.19 110.88L464.5 101.69L464.5 80.75L458.31 75.94L455.74 78.01L455.5 104.69L456.68 108.38L459.19 110.88Z" id="c3eys0RvzO" fill="white" fill-opacity="1" filter="url(#shadow8805218)"></path></g><use xlink:href="#b4z7SPD73k" opacity="1" fill="#444540" fill-opacity="1"></use><g><use xlink:href="#b4z7SPD73k" opacity="1" fill-opacity="0" stroke="#444540" stroke-width="1" stroke-opacity="1"></use></g></g><g><g><filter id="shadow8966374" x="468.26" y="56.94" width="50" height="75.44" filterUnits="userSpaceOnUse" primitiveUnits="userSpaceOnUse"><feFlood></feFlood><feComposite in2="SourceAlpha" operator="in"></feComposite><feGaussianBlur stdDeviation="2.24"></feGaussianBlur><feOffset dx="3" dy="2.5" result="afterOffset"></feOffset><feFlood flood-color="#000000" flood-opacity="0.5"></feFlood><feComposite in2="afterOffset" operator="in"></feComposite><feMorphology operator="dilate" radius="1"></feMorphology><feComposite in2="SourceAlpha" operator="out"></feComposite></filter><path d="M492.57 110.88L487.26 101.69L487.26 80.75L493.45 75.94L496.02 78.01L496.26 104.69L495.08 108.38L492.57 110.88Z" id="b2ouvRBBRu" fill="white" fill-opacity="1" filter="url(#shadow8966374)"></path></g><use xlink:href="#d42wAPxDgm" opacity="1" fill="#444540" fill-opacity="1"></use><g><use xlink:href="#d42wAPxDgm" opacity="1" fill-opacity="0" stroke="#444540" stroke-width="1" stroke-opacity="1"></use></g></g><g><g><filter id="shadow5505838" x="444.93" y="50.49" width="64.08" height="48.73" filterUnits="userSpaceOnUse" primitiveUnits="userSpaceOnUse"><feFlood></feFlood><feComposite in2="SourceAlpha" operator="in"></feComposite><feGaussianBlur stdDeviation="2.24"></feGaussianBlur><feOffset dx="3" dy="2.5" result="afterOffset"></feOffset><feFlood flood-color="#000000" flood-opacity="0.5"></feFlood><feComposite in2="afterOffset" operator="in"></feComposite><feMorphology operator="dilate" radius="1"></feMorphology><feComposite in2="SourceAlpha" operator="out"></feComposite></filter><path d="M470.04 77.59L481.39 77.73L487.01 73.61L481.39 69.49L470.04 69.49L463.93 73.61L470.04 77.59Z" id="d3KOD4Byqd" fill="white" fill-opacity="1" filter="url(#shadow5505838)"></path></g><use xlink:href="#bY06bC9EK" opacity="1" fill="#444540" fill-opacity="1"></use><g><use xlink:href="#bY06bC9EK" opacity="1" fill-opacity="0" stroke="#444540" stroke-width="1" stroke-opacity="1"></use></g></g><g><g><filter id="shadow12992143" x="445.16" y="16.09" width="63.52" height="48.72" filterUnits="userSpaceOnUse" primitiveUnits="userSpaceOnUse"><feFlood></feFlood><feComposite in2="SourceAlpha" operator="in"></feComposite><feGaussianBlur stdDeviation="2.24"></feGaussianBlur><feOffset dx="3" dy="2.5" result="afterOffset"></feOffset><feFlood flood-color="#000000" flood-opacity="0.5"></feFlood><feComposite in2="afterOffset" operator="in"></feComposite><feMorphology operator="dilate" radius="1"></feMorphology><feComposite in2="SourceAlpha" operator="out"></feComposite></filter><path d="M481.41 43.31L486.68 35.09L464.16 35.09L469.2 43.31L481.41 43.31Z" id="a3BAxnjt7K" fill="white" fill-opacity="1" filter="url(#shadow12992143)"></path></g><use xlink:href="#ashuc3L00" opacity="1" fill="#444540" fill-opacity="1"></use><g><use xlink:href="#ashuc3L00" opacity="1" fill-opacity="0" stroke="#444540" stroke-width="1" stroke-opacity="1"></use></g></g><g><g><filter id="shadow14271504" x="436.5" y="17.42" width="50" height="75.44" filterUnits="userSpaceOnUse" primitiveUnits="userSpaceOnUse"><feFlood></feFlood><feComposite in2="SourceAlpha" operator="in"></feComposite><feGaussianBlur stdDeviation="2.24"></feGaussianBlur><feOffset dx="3" dy="2.5" result="afterOffset"></feOffset><feFlood flood-color="#000000" flood-opacity="0.5"></feFlood><feComposite in2="afterOffset" operator="in"></feComposite><feMorphology operator="dilate" radius="1"></feMorphology><feComposite in2="SourceAlpha" operator="out"></feComposite></filter><path d="M459.19 36.42L464.5 45.6L464.5 66.54L458.31 71.35L455.74 69.29L455.5 42.6L456.68 38.91L459.19 36.42Z" id="c2NkudvQ4g" fill="white" fill-opacity="1" filter="url(#shadow14271504)"></path></g><use xlink:href="#adIXCPuXI" opacity="1" fill="#444540" fill-opacity="1"></use><g><use xlink:href="#adIXCPuXI" opacity="1" fill-opacity="0" stroke="#444540" stroke-width="1" stroke-opacity="1"></use></g></g></g></svg>