<?xml version="1.0" encoding="UTF-8" standalone="no"?>
<!DOCTYPE svg PUBLIC "-//W3C//DTD SVG 1.1//EN" "http://www.w3.org/Graphics/SVG/1.1/DTD/svg11.dtd">
<svg version="1.1" xmlns="http://www.w3.org/2000/svg" xmlns:xlink="http://www.w3.org/1999/xlink" preserveAspectRatio="xMidYMid meet" viewBox="243.43474889052868 28.779899122807535 52.84975438596513 88.78579575847192" width="40.85" height="76.79"><defs><path d="M272.69 100.84L277.95 109.07L255.43 109.07L260.47 100.84L272.69 100.84Z" id="c4K2QAWPk"></path><path d="M283.59 33.6L278.28 42.79L278.28 63.72L284.47 68.54L287.04 66.48L287.28 39.79L286.1 36.1L283.59 33.6Z" id="a1fpUVSBaW"></path><path d="M250.12 108.07L255.43 98.88L255.43 77.94L249.25 73.13L246.68 75.19L246.43 101.88L247.62 105.57L250.12 108.07Z" id="bCFOcayuR"></path><path d="M283.51 108.07L278.2 98.88L278.2 77.94L284.39 73.13L286.95 75.19L287.2 101.88L286.02 105.57L283.51 108.07Z" id="dqK2KN1u9"></path><path d="M260.97 74.78L272.32 74.91L277.95 70.8L272.32 66.68L260.97 66.68L254.87 70.8L260.97 74.78Z" id="a1clMukSXF"></path><path d="M272.35 40.5L277.62 32.28L255.1 32.28L260.14 40.5L272.35 40.5Z" id="c10OVAwq3M"></path><path d="M250.12 33.6L255.43 42.79L255.43 63.72L249.25 68.54L246.68 66.48L246.43 39.79L247.62 36.1L250.12 33.6Z" id="d6I52OKP6P"></path></defs><g><g><g><filter id="shadow16775529" x="236.43" y="81.84" width="63.52" height="48.73" filterUnits="userSpaceOnUse" primitiveUnits="userSpaceOnUse"><feFlood></feFlood><feComposite in2="SourceAlpha" operator="in"></feComposite><feGaussianBlur stdDeviation="2.24"></feGaussianBlur><feOffset dx="3" dy="2.5" result="afterOffset"></feOffset><feFlood flood-color="#000000" flood-opacity="0.5"></feFlood><feComposite in2="afterOffset" operator="in"></feComposite><feMorphology operator="dilate" radius="1"></feMorphology><feComposite in2="SourceAlpha" operator="out"></feComposite></filter><path d="M272.69 100.84L277.95 109.07L255.43 109.07L260.47 100.84L272.69 100.84Z" id="c1QfMysIoc" fill="white" fill-opacity="1" filter="url(#shadow16775529)"></path></g><use xlink:href="#c4K2QAWPk" opacity="1" fill="#444540" fill-opacity="1"></use><g><use xlink:href="#c4K2QAWPk" opacity="1" fill-opacity="0" stroke="#424440" stroke-width="1" stroke-opacity="1"></use></g></g><g><g><filter id="shadow2166000" x="259.28" y="14.6" width="50" height="75.44" filterUnits="userSpaceOnUse" primitiveUnits="userSpaceOnUse"><feFlood></feFlood><feComposite in2="SourceAlpha" operator="in"></feComposite><feGaussianBlur stdDeviation="2.24"></feGaussianBlur><feOffset dx="3" dy="2.5" result="afterOffset"></feOffset><feFlood flood-color="#000000" flood-opacity="0.5"></feFlood><feComposite in2="afterOffset" operator="in"></feComposite><feMorphology operator="dilate" radius="1"></feMorphology><feComposite in2="SourceAlpha" operator="out"></feComposite></filter><path d="M283.59 33.6L278.28 42.79L278.28 63.72L284.47 68.54L287.04 66.48L287.28 39.79L286.1 36.1L283.59 33.6Z" id="a116Bdzyx" fill="white" fill-opacity="1" filter="url(#shadow2166000)"></path></g><use xlink:href="#a1fpUVSBaW" opacity="1" fill="#444540" fill-opacity="1"></use><g><use xlink:href="#a1fpUVSBaW" opacity="1" fill-opacity="0" stroke="#444540" stroke-width="1" stroke-opacity="1"></use></g></g><g><use xlink:href="#bCFOcayuR" opacity="1" fill="#a2b09f" fill-opacity="1"></use><g><use xlink:href="#bCFOcayuR" opacity="1" fill-opacity="0" stroke="#a2b09f" stroke-width="1" stroke-opacity="1"></use></g></g><g><g><filter id="shadow2048355" x="259.2" y="54.13" width="50" height="75.44" filterUnits="userSpaceOnUse" primitiveUnits="userSpaceOnUse"><feFlood></feFlood><feComposite in2="SourceAlpha" operator="in"></feComposite><feGaussianBlur stdDeviation="2.24"></feGaussianBlur><feOffset dx="3" dy="2.5" result="afterOffset"></feOffset><feFlood flood-color="#000000" flood-opacity="0.5"></feFlood><feComposite in2="afterOffset" operator="in"></feComposite><feMorphology operator="dilate" radius="1"></feMorphology><feComposite in2="SourceAlpha" operator="out"></feComposite></filter><path d="M283.51 108.07L278.2 98.88L278.2 77.94L284.39 73.13L286.95 75.19L287.2 101.88L286.02 105.57L283.51 108.07Z" id="cIJO8l1B9" fill="white" fill-opacity="1" filter="url(#shadow2048355)"></path></g><use xlink:href="#dqK2KN1u9" opacity="1" fill="#444540" fill-opacity="1"></use><g><use xlink:href="#dqK2KN1u9" opacity="1" fill-opacity="0" stroke="#444540" stroke-width="1" stroke-opacity="1"></use></g></g><g><g><filter id="shadow14656685" x="235.87" y="47.68" width="64.08" height="48.73" filterUnits="userSpaceOnUse" primitiveUnits="userSpaceOnUse"><feFlood></feFlood><feComposite in2="SourceAlpha" operator="in"></feComposite><feGaussianBlur stdDeviation="2.24"></feGaussianBlur><feOffset dx="3" dy="2.5" result="afterOffset"></feOffset><feFlood flood-color="#000000" flood-opacity="0.5"></feFlood><feComposite in2="afterOffset" operator="in"></feComposite><feMorphology operator="dilate" radius="1"></feMorphology><feComposite in2="SourceAlpha" operator="out"></feComposite></filter><path d="M260.97 74.78L272.32 74.91L277.95 70.8L272.32 66.68L260.97 66.68L254.87 70.8L260.97 74.78Z" id="b5qHNPjV" fill="white" fill-opacity="1" filter="url(#shadow14656685)"></path></g><use xlink:href="#a1clMukSXF" opacity="1" fill="#444540" fill-opacity="1"></use><g><use xlink:href="#a1clMukSXF" opacity="1" fill-opacity="0" stroke="#444540" stroke-width="1" stroke-opacity="1"></use></g></g><g><g><filter id="shadow7772227" x="236.1" y="13.28" width="63.52" height="48.72" filterUnits="userSpaceOnUse" primitiveUnits="userSpaceOnUse"><feFlood></feFlood><feComposite in2="SourceAlpha" operator="in"></feComposite><feGaussianBlur stdDeviation="2.24"></feGaussianBlur><feOffset dx="3" dy="2.5" result="afterOffset"></feOffset><feFlood flood-color="#000000" flood-opacity="0.5"></feFlood><feComposite in2="afterOffset" operator="in"></feComposite><feMorphology operator="dilate" radius="1"></feMorphology><feComposite in2="SourceAlpha" operator="out"></feComposite></filter><path d="M272.35 40.5L277.62 32.28L255.1 32.28L260.14 40.5L272.35 40.5Z" id="aMrJSwOJD" fill="white" fill-opacity="1" filter="url(#shadow7772227)"></path></g><use xlink:href="#c10OVAwq3M" opacity="1" fill="#444540" fill-opacity="1"></use><g><use xlink:href="#c10OVAwq3M" opacity="1" fill-opacity="0" stroke="#444540" stroke-width="1" stroke-opacity="1"></use></g></g><g><use xlink:href="#d6I52OKP6P" opacity="1" fill="#a2b09f" fill-opacity="1"></use><g><use xlink:href="#d6I52OKP6P" opacity="1" fill-opacity="0" stroke="#a2b09f" stroke-width="1" stroke-opacity="1"></use></g></g></g></svg>