<?xml version="1.0" encoding="UTF-8" standalone="no"?>
<!DOCTYPE svg PUBLIC "-//W3C//DTD SVG 1.1//EN" "http://www.w3.org/Graphics/SVG/1.1/DTD/svg11.dtd">
<svg version="1.1" xmlns="http://www.w3.org/2000/svg" xmlns:xlink="http://www.w3.org/1999/xlink" preserveAspectRatio="xMidYMid meet" viewBox="173.90349889052868 28.779899122807535 52.84975438596513 88.78579575847192" width="40.85" height="76.79"><defs><path d="M203.15 100.84L208.42 109.07L185.9 109.07L190.94 100.84L203.15 100.84Z" id="e1rdsx697t"></path><path d="M214.06 33.6L208.75 42.79L208.75 63.72L214.94 68.54L217.51 66.48L217.75 39.79L216.57 36.1L214.06 33.6Z" id="e2bzZjdsSO"></path><path d="M180.59 108.07L185.9 98.88L185.9 77.94L179.72 73.13L177.15 75.19L176.9 101.88L178.09 105.57L180.59 108.07Z" id="aD6VMIRJ2"></path><path d="M213.98 108.07L208.67 98.88L208.67 77.94L214.86 73.13L217.42 75.19L217.67 101.88L216.48 105.57L213.98 108.07Z" id="d1pSBtD9GB"></path><path d="M191.44 74.78L202.79 74.91L208.42 70.8L202.79 66.68L191.44 66.68L185.34 70.8L191.44 74.78Z" id="bhCf1wJeQ"></path><path d="M202.82 40.5L208.09 32.28L185.57 32.28L190.61 40.5L202.82 40.5Z" id="c2SQtsHmCM"></path><path d="M180.59 33.6L185.9 42.79L185.9 63.72L179.72 68.54L177.15 66.48L176.9 39.79L178.09 36.1L180.59 33.6Z" id="btZ783lfZ"></path></defs><g><g><g><filter id="shadow10973910" x="166.9" y="81.84" width="63.52" height="48.73" filterUnits="userSpaceOnUse" primitiveUnits="userSpaceOnUse"><feFlood></feFlood><feComposite in2="SourceAlpha" operator="in"></feComposite><feGaussianBlur stdDeviation="2.24"></feGaussianBlur><feOffset dx="3" dy="2.5" result="afterOffset"></feOffset><feFlood flood-color="#000000" flood-opacity="0.5"></feFlood><feComposite in2="afterOffset" operator="in"></feComposite><feMorphology operator="dilate" radius="1"></feMorphology><feComposite in2="SourceAlpha" operator="out"></feComposite></filter><path d="M203.15 100.84L208.42 109.07L185.9 109.07L190.94 100.84L203.15 100.84Z" id="d1OHEjWo4i" fill="white" fill-opacity="1" filter="url(#shadow10973910)"></path></g><use xlink:href="#e1rdsx697t" opacity="1" fill="#444540" fill-opacity="1"></use><g><use xlink:href="#e1rdsx697t" opacity="1" fill-opacity="0" stroke="#424440" stroke-width="1" stroke-opacity="1"></use></g></g><g><g><filter id="shadow13586450" x="189.75" y="14.6" width="50" height="75.44" filterUnits="userSpaceOnUse" primitiveUnits="userSpaceOnUse"><feFlood></feFlood><feComposite in2="SourceAlpha" operator="in"></feComposite><feGaussianBlur stdDeviation="2.24"></feGaussianBlur><feOffset dx="3" dy="2.5" result="afterOffset"></feOffset><feFlood flood-color="#000000" flood-opacity="0.5"></feFlood><feComposite in2="afterOffset" operator="in"></feComposite><feMorphology operator="dilate" radius="1"></feMorphology><feComposite in2="SourceAlpha" operator="out"></feComposite></filter><path d="M214.06 33.6L208.75 42.79L208.75 63.72L214.94 68.54L217.51 66.48L217.75 39.79L216.57 36.1L214.06 33.6Z" id="cpX5o63vs" fill="white" fill-opacity="1" filter="url(#shadow13586450)"></path></g><use xlink:href="#e2bzZjdsSO" opacity="1" fill="#444540" fill-opacity="1"></use><g><use xlink:href="#e2bzZjdsSO" opacity="1" fill-opacity="0" stroke="#444540" stroke-width="1" stroke-opacity="1"></use></g></g><g><g><filter id="shadow11749710" x="157.9" y="54.13" width="50" height="75.44" filterUnits="userSpaceOnUse" primitiveUnits="userSpaceOnUse"><feFlood></feFlood><feComposite in2="SourceAlpha" operator="in"></feComposite><feGaussianBlur stdDeviation="2.24"></feGaussianBlur><feOffset dx="3" dy="2.5" result="afterOffset"></feOffset><feFlood flood-color="#000000" flood-opacity="0.5"></feFlood><feComposite in2="afterOffset" operator="in"></feComposite><feMorphology operator="dilate" radius="1"></feMorphology><feComposite in2="SourceAlpha" operator="out"></feComposite></filter><path d="M180.59 108.07L185.9 98.88L185.9 77.94L179.72 73.13L177.15 75.19L176.9 101.88L178.09 105.57L180.59 108.07Z" id="eaHHpY9Bo" fill="white" fill-opacity="1" filter="url(#shadow11749710)"></path></g><use xlink:href="#aD6VMIRJ2" opacity="1" fill="#444540" fill-opacity="1"></use><g><use xlink:href="#aD6VMIRJ2" opacity="1" fill-opacity="0" stroke="#444540" stroke-width="1" stroke-opacity="1"></use></g></g><g><use xlink:href="#d1pSBtD9GB" opacity="1" fill="#a2b09f" fill-opacity="1"></use><g><use xlink:href="#d1pSBtD9GB" opacity="1" fill-opacity="0" stroke="#a2b09f" stroke-width="1" stroke-opacity="1"></use></g></g><g><g><filter id="shadow7249626" x="166.34" y="47.68" width="64.08" height="48.73" filterUnits="userSpaceOnUse" primitiveUnits="userSpaceOnUse"><feFlood></feFlood><feComposite in2="SourceAlpha" operator="in"></feComposite><feGaussianBlur stdDeviation="2.24"></feGaussianBlur><feOffset dx="3" dy="2.5" result="afterOffset"></feOffset><feFlood flood-color="#000000" flood-opacity="0.5"></feFlood><feComposite in2="afterOffset" operator="in"></feComposite><feMorphology operator="dilate" radius="1"></feMorphology><feComposite in2="SourceAlpha" operator="out"></feComposite></filter><path d="M191.44 74.78L202.79 74.91L208.42 70.8L202.79 66.68L191.44 66.68L185.34 70.8L191.44 74.78Z" id="enXxVYW5" fill="white" fill-opacity="1" filter="url(#shadow7249626)"></path></g><use xlink:href="#bhCf1wJeQ" opacity="1" fill="#444540" fill-opacity="1"></use><g><use xlink:href="#bhCf1wJeQ" opacity="1" fill-opacity="0" stroke="#444540" stroke-width="1" stroke-opacity="1"></use></g></g><g><g><filter id="shadow9450687" x="166.57" y="13.28" width="63.52" height="48.72" filterUnits="userSpaceOnUse" primitiveUnits="userSpaceOnUse"><feFlood></feFlood><feComposite in2="SourceAlpha" operator="in"></feComposite><feGaussianBlur stdDeviation="2.24"></feGaussianBlur><feOffset dx="3" dy="2.5" result="afterOffset"></feOffset><feFlood flood-color="#000000" flood-opacity="0.5"></feFlood><feComposite in2="afterOffset" operator="in"></feComposite><feMorphology operator="dilate" radius="1"></feMorphology><feComposite in2="SourceAlpha" operator="out"></feComposite></filter><path d="M202.82 40.5L208.09 32.28L185.57 32.28L190.61 40.5L202.82 40.5Z" id="d2D0mImc6" fill="white" fill-opacity="1" filter="url(#shadow9450687)"></path></g><use xlink:href="#c2SQtsHmCM" opacity="1" fill="#444540" fill-opacity="1"></use><g><use xlink:href="#c2SQtsHmCM" opacity="1" fill-opacity="0" stroke="#444540" stroke-width="1" stroke-opacity="1"></use></g></g><g><use xlink:href="#btZ783lfZ" opacity="1" fill="#a2b09f" fill-opacity="1"></use><g><use xlink:href="#btZ783lfZ" opacity="1" fill-opacity="0" stroke="#a2b09f" stroke-width="1" stroke-opacity="1"></use></g></g></g></svg>