<?xml version="1.0" encoding="UTF-8" standalone="no"?>
<!DOCTYPE svg PUBLIC "-//W3C//DTD SVG 1.1//EN" "http://www.w3.org/Graphics/SVG/1.1/DTD/svg11.dtd">
<svg version="1.1" xmlns="http://www.w3.org/2000/svg" xmlns:xlink="http://www.w3.org/1999/xlink" preserveAspectRatio="xMidYMid meet" viewBox="30.153498890528667 27.99864912280748 52.84975438596513 88.78579575847198" width="40.85" height="79.16"><defs><path d="" id="k28eoQEeV4"></path><path d="M59.4 100.06L64.67 108.28L42.15 108.28L47.19 100.06L59.4 100.06Z" id="aEf6iqDYs"></path><path d="M70.31 32.82L65 42.01L65 62.94L71.19 67.76L73.76 65.69L74 39.01L72.82 35.32L70.31 32.82Z" id="b1Gh4rKML3"></path><path d="M36.84 107.28L42.15 98.1L42.15 77.16L35.97 72.35L33.4 74.41L33.15 101.1L34.34 104.79L36.84 107.28Z" id="d7EmKJQ76"></path><path d="M70.23 107.28L64.92 98.1L64.92 77.16L71.11 72.35L73.67 74.41L73.92 101.1L72.73 104.79L70.23 107.28Z" id="a5HCzOuY6"></path><path d="M47.69 74L59.04 74.13L64.67 70.02L59.04 65.9L47.69 65.9L41.59 70.02L47.69 74Z" id="a7BHTJkWB6"></path><path d="M59.07 39.72L64.34 31.5L41.82 31.5L46.86 39.72L59.07 39.72Z" id="fkJlYCzWd"></path><path d="M36.84 32.82L42.15 42.01L42.15 62.94L35.97 67.76L33.4 65.69L33.15 39.01L34.34 35.32L36.84 32.82Z" id="d1Jc4N1GCv"></path></defs><g><g><g><use xlink:href="#k28eoQEeV4" opacity="1" fill-opacity="0" stroke="#000000" stroke-width="1" stroke-opacity="1"></use></g></g><g><g><filter id="shadow1018140" x="23.15" y="81.06" width="63.52" height="48.73" filterUnits="userSpaceOnUse" primitiveUnits="userSpaceOnUse"><feFlood></feFlood><feComposite in2="SourceAlpha" operator="in"></feComposite><feGaussianBlur stdDeviation="2.24"></feGaussianBlur><feOffset dx="3" dy="2.5" result="afterOffset"></feOffset><feFlood flood-color="#000000" flood-opacity="0.5"></feFlood><feComposite in2="afterOffset" operator="in"></feComposite><feMorphology operator="dilate" radius="1"></feMorphology><feComposite in2="SourceAlpha" operator="out"></feComposite></filter><path d="M59.4 100.06L64.67 108.28L42.15 108.28L47.19 100.06L59.4 100.06Z" id="d2Jphxtjzf" fill="white" fill-opacity="1" filter="url(#shadow1018140)"></path></g><use xlink:href="#aEf6iqDYs" opacity="1" fill="#444540" fill-opacity="1"></use><g><use xlink:href="#aEf6iqDYs" opacity="1" fill-opacity="0" stroke="#424440" stroke-width="1" stroke-opacity="1"></use></g></g><g><g><filter id="shadow15010675" x="46" y="13.82" width="50" height="75.44" filterUnits="userSpaceOnUse" primitiveUnits="userSpaceOnUse"><feFlood></feFlood><feComposite in2="SourceAlpha" operator="in"></feComposite><feGaussianBlur stdDeviation="2.24"></feGaussianBlur><feOffset dx="3" dy="2.5" result="afterOffset"></feOffset><feFlood flood-color="#000000" flood-opacity="0.5"></feFlood><feComposite in2="afterOffset" operator="in"></feComposite><feMorphology operator="dilate" radius="1"></feMorphology><feComposite in2="SourceAlpha" operator="out"></feComposite></filter><path d="M70.31 32.82L65 42.01L65 62.94L71.19 67.76L73.76 65.69L74 39.01L72.82 35.32L70.31 32.82Z" id="a1DKgRa3Ly" fill="white" fill-opacity="1" filter="url(#shadow15010675)"></path></g><use xlink:href="#b1Gh4rKML3" opacity="1" fill="#444540" fill-opacity="1"></use><g><use xlink:href="#b1Gh4rKML3" opacity="1" fill-opacity="0" stroke="#444540" stroke-width="1" stroke-opacity="1"></use></g></g><g><g><filter id="shadow427679" x="14.15" y="53.35" width="50" height="75.44" filterUnits="userSpaceOnUse" primitiveUnits="userSpaceOnUse"><feFlood></feFlood><feComposite in2="SourceAlpha" operator="in"></feComposite><feGaussianBlur stdDeviation="2.24"></feGaussianBlur><feOffset dx="3" dy="2.5" result="afterOffset"></feOffset><feFlood flood-color="#000000" flood-opacity="0.5"></feFlood><feComposite in2="afterOffset" operator="in"></feComposite><feMorphology operator="dilate" radius="1"></feMorphology><feComposite in2="SourceAlpha" operator="out"></feComposite></filter><path d="M36.84 107.28L42.15 98.1L42.15 77.16L35.97 72.35L33.4 74.41L33.15 101.1L34.34 104.79L36.84 107.28Z" id="b15NeZ0GK0" fill="white" fill-opacity="1" filter="url(#shadow427679)"></path></g><use xlink:href="#d7EmKJQ76" opacity="1" fill="#444540" fill-opacity="1"></use><g><use xlink:href="#d7EmKJQ76" opacity="1" fill-opacity="0" stroke="#444540" stroke-width="1" stroke-opacity="1"></use></g></g><g><g><filter id="shadow10881906" x="45.92" y="53.35" width="50" height="75.44" filterUnits="userSpaceOnUse" primitiveUnits="userSpaceOnUse"><feFlood></feFlood><feComposite in2="SourceAlpha" operator="in"></feComposite><feGaussianBlur stdDeviation="2.24"></feGaussianBlur><feOffset dx="3" dy="2.5" result="afterOffset"></feOffset><feFlood flood-color="#000000" flood-opacity="0.5"></feFlood><feComposite in2="afterOffset" operator="in"></feComposite><feMorphology operator="dilate" radius="1"></feMorphology><feComposite in2="SourceAlpha" operator="out"></feComposite></filter><path d="M70.23 107.28L64.92 98.1L64.92 77.16L71.11 72.35L73.67 74.41L73.92 101.1L72.73 104.79L70.23 107.28Z" id="c1IoH3eaXR" fill="white" fill-opacity="1" filter="url(#shadow10881906)"></path></g><use xlink:href="#a5HCzOuY6" opacity="1" fill="#444540" fill-opacity="1"></use><g><use xlink:href="#a5HCzOuY6" opacity="1" fill-opacity="0" stroke="#444540" stroke-width="1" stroke-opacity="1"></use></g></g><g><use xlink:href="#a7BHTJkWB6" opacity="1" fill="#a2b09f" fill-opacity="1"></use><g><use xlink:href="#a7BHTJkWB6" opacity="1" fill-opacity="0" stroke="#a2b09f" stroke-width="1" stroke-opacity="1"></use></g></g><g><g><filter id="shadow9143002" x="22.82" y="12.5" width="63.52" height="48.72" filterUnits="userSpaceOnUse" primitiveUnits="userSpaceOnUse"><feFlood></feFlood><feComposite in2="SourceAlpha" operator="in"></feComposite><feGaussianBlur stdDeviation="2.24"></feGaussianBlur><feOffset dx="3" dy="2.5" result="afterOffset"></feOffset><feFlood flood-color="#000000" flood-opacity="0.5"></feFlood><feComposite in2="afterOffset" operator="in"></feComposite><feMorphology operator="dilate" radius="1"></feMorphology><feComposite in2="SourceAlpha" operator="out"></feComposite></filter><path d="M59.07 39.72L64.34 31.5L41.82 31.5L46.86 39.72L59.07 39.72Z" id="afSulc27X" fill="white" fill-opacity="1" filter="url(#shadow9143002)"></path></g><use xlink:href="#fkJlYCzWd" opacity="1" fill="#444540" fill-opacity="1"></use><g><use xlink:href="#fkJlYCzWd" opacity="1" fill-opacity="0" stroke="#444540" stroke-width="1" stroke-opacity="1"></use></g></g><g><g><filter id="shadow13424516" x="14.15" y="13.82" width="50" height="75.44" filterUnits="userSpaceOnUse" primitiveUnits="userSpaceOnUse"><feFlood></feFlood><feComposite in2="SourceAlpha" operator="in"></feComposite><feGaussianBlur stdDeviation="2.24"></feGaussianBlur><feOffset dx="3" dy="2.5" result="afterOffset"></feOffset><feFlood flood-color="#000000" flood-opacity="0.5"></feFlood><feComposite in2="afterOffset" operator="in"></feComposite><feMorphology operator="dilate" radius="1"></feMorphology><feComposite in2="SourceAlpha" operator="out"></feComposite></filter><path d="M36.84 32.82L42.15 42.01L42.15 62.94L35.97 67.76L33.4 65.69L33.15 39.01L34.34 35.32L36.84 32.82Z" id="b59COJDPy" fill="white" fill-opacity="1" filter="url(#shadow13424516)"></path></g><use xlink:href="#d1Jc4N1GCv" opacity="1" fill="#444540" fill-opacity="1"></use><g><use xlink:href="#d1Jc4N1GCv" opacity="1" fill-opacity="0" stroke="#444540" stroke-width="1" stroke-opacity="1"></use></g></g></g></svg>